<svg width="117" height="19" viewBox="0 0 117 19" fill="none" xmlns="http://www.w3.org/2000/svg">
<path d="M116.539 14.8309H113.759L109.499 9.87094V14.8309H106.959V0.210938H109.499V8.55094L113.579 4.29094H116.459L111.939 9.15094L116.539 14.8309Z" fill="white"/>
<path d="M100.416 15.0703C98.8427 15.0703 97.5293 14.5503 96.476 13.5103C95.436 12.457 94.916 11.1503 94.916 9.59031C94.916 8.01698 95.436 6.70365 96.476 5.65031C97.516 4.59698 98.8293 4.07031 100.416 4.07031C101.696 4.07031 102.776 4.41031 103.656 5.09031C104.549 5.77031 105.129 6.56365 105.396 7.47031L103.116 8.37031C102.943 7.74365 102.623 7.25031 102.156 6.89031C101.689 6.51698 101.123 6.33031 100.456 6.33031C99.6027 6.33031 98.8894 6.63031 98.316 7.23031C97.7427 7.83031 97.456 8.61031 97.456 9.57031C97.456 10.5303 97.7427 11.3103 98.316 11.9103C98.8894 12.5103 99.6093 12.8103 100.476 12.8103C101.143 12.8103 101.716 12.6303 102.196 12.2703C102.676 11.897 103.003 11.4036 103.176 10.7903L105.456 11.7103C105.189 12.6036 104.609 13.3903 103.716 14.0703C102.823 14.737 101.723 15.0703 100.416 15.0703Z" fill="white"/>
<path d="M90.7449 4.29094H93.1049V14.8309H90.7449V13.4109C89.9183 14.5176 88.7583 15.0709 87.2649 15.0709C85.7583 15.0709 84.5116 14.5509 83.5249 13.5109C82.5383 12.4576 82.0449 11.1443 82.0449 9.57094C82.0449 7.9976 82.5316 6.71094 83.5049 5.71094C84.4916 4.71094 85.7449 4.21094 87.2649 4.21094C88.7849 4.21094 89.9449 4.7376 90.7449 5.79094V4.29094ZM87.6049 12.8309C88.5116 12.8309 89.2449 12.5309 89.8049 11.9309C90.3783 11.3176 90.6649 10.5309 90.6649 9.57094C90.6649 8.5976 90.3783 7.81094 89.8049 7.21094C89.2449 6.61094 88.5116 6.31094 87.6049 6.31094C86.7383 6.31094 86.0183 6.62427 85.4449 7.25094C84.8716 7.86427 84.5849 8.6376 84.5849 9.57094C84.5849 10.5043 84.8716 11.2843 85.4449 11.9109C86.0183 12.5243 86.7383 12.8309 87.6049 12.8309Z" fill="white"/>
<path d="M79.6873 14.8308C78.4473 14.8308 77.5007 14.4908 76.8473 13.8108C76.194 13.1308 75.8673 12.1974 75.8673 11.0108V6.47078H74.0273V4.29078H74.9873C75.6807 4.29078 76.0273 3.93078 76.0273 3.21078V1.55078H78.5073V4.29078H81.2673V6.47078H78.4273V10.7308C78.4273 11.9841 79.014 12.6108 80.1873 12.6108H81.3473V14.8308H79.6873Z" fill="white"/>
<path d="M68.0999 15.0509C66.7933 15.0509 65.6866 14.7509 64.7799 14.1509C63.8733 13.5376 63.2533 12.6776 62.9199 11.5709L65.3399 10.6509C65.5266 11.3576 65.8799 11.9043 66.3999 12.2909C66.9199 12.6643 67.5666 12.8509 68.3399 12.8509C69.0599 12.8509 69.6199 12.7043 70.0199 12.4109C70.4333 12.1043 70.6399 11.6843 70.6399 11.1509C70.6399 10.6709 70.4599 10.2643 70.0999 9.93094C69.7533 9.59761 69.3199 9.34427 68.7999 9.17094C68.2799 8.9976 67.7066 8.79094 67.0799 8.55094C66.4666 8.31094 65.8999 8.0576 65.3799 7.79094C64.8599 7.52427 64.4199 7.1176 64.0599 6.57094C63.7133 6.02427 63.5399 5.37094 63.5399 4.61094C63.5399 3.4376 63.9599 2.4976 64.7999 1.79094C65.6399 1.07094 66.7933 0.710938 68.2599 0.710938C69.4999 0.710938 70.5333 0.990937 71.3599 1.55094C72.1866 2.0976 72.7333 2.84427 72.9999 3.79094L70.5799 4.71094C70.2333 3.4976 69.4199 2.89094 68.1399 2.89094C67.4866 2.89094 66.9799 3.03094 66.6199 3.31094C66.2733 3.59094 66.0999 3.9576 66.0999 4.41094C66.0999 4.86427 66.2733 5.25094 66.6199 5.57094C66.9799 5.8776 67.4199 6.11094 67.9399 6.27094C68.4733 6.43094 69.0466 6.6376 69.6599 6.89094C70.2733 7.13094 70.8399 7.3976 71.3599 7.69094C71.8933 7.97094 72.3333 8.40427 72.6799 8.99094C73.0399 9.57761 73.2199 10.2776 73.2199 11.0909C73.2199 12.2776 72.7599 13.2376 71.8399 13.9709C70.9199 14.6909 69.6733 15.0509 68.0999 15.0509Z" fill="white"/>
<path d="M59.8259 4.29102H62.4659L58.4459 14.831L57.0859 18.411H54.5859L56.0259 14.831H55.2259L51.5059 4.29102H54.1259L56.8459 12.791L59.8259 4.29102Z" fill="white"/>
<path d="M45.9449 4.05078C47.4516 4.05078 48.6849 4.57745 49.6449 5.63078C50.6183 6.67078 51.1049 7.98411 51.1049 9.57078C51.1049 11.1441 50.6116 12.4574 49.6249 13.5108C48.6383 14.5508 47.3916 15.0708 45.8849 15.0708C44.5249 15.0708 43.4249 14.6174 42.5849 13.7108V18.4108H40.0449V4.29078H42.4049V5.67078C43.2716 4.59078 44.4516 4.05078 45.9449 4.05078ZM45.5449 12.8308C46.4116 12.8308 47.1316 12.5241 47.7049 11.9108C48.2783 11.2841 48.5649 10.5041 48.5649 9.57078C48.5649 8.63745 48.2783 7.86412 47.7049 7.25078C47.1316 6.62412 46.4116 6.31078 45.5449 6.31078C44.6383 6.31078 43.8983 6.61745 43.3249 7.23078C42.7649 7.83078 42.4849 8.61078 42.4849 9.57078C42.4849 10.5308 42.7649 11.3174 43.3249 11.9308C43.8983 12.5308 44.6383 12.8308 45.5449 12.8308Z" fill="white"/>
<path d="M33.0738 4.05078C34.5805 4.05078 35.8138 4.57745 36.7738 5.63078C37.7472 6.67078 38.2338 7.98411 38.2338 9.57078C38.2338 11.1441 37.7405 12.4574 36.7538 13.5108C35.7672 14.5508 34.5205 15.0708 33.0138 15.0708C31.6538 15.0708 30.5538 14.6174 29.7138 13.7108V18.4108H27.1738V4.29078H29.5338V5.67078C30.4005 4.59078 31.5805 4.05078 33.0738 4.05078ZM32.6738 12.8308C33.5405 12.8308 34.2605 12.5241 34.8338 11.9108C35.4072 11.2841 35.6938 10.5041 35.6938 9.57078C35.6938 8.63745 35.4072 7.86412 34.8338 7.25078C34.2605 6.62412 33.5405 6.31078 32.6738 6.31078C31.7672 6.31078 31.0272 6.61745 30.4538 7.23078C29.8938 7.83078 29.6138 8.61078 29.6138 9.57078C29.6138 10.5308 29.8938 11.3174 30.4538 11.9308C31.0272 12.5308 31.7672 12.8308 32.6738 12.8308Z" fill="white"/>
<path d="M22.4637 4.29094H24.8237V14.8309H22.4637V13.4109C21.637 14.5176 20.477 15.0709 18.9837 15.0709C17.477 15.0709 16.2303 14.5509 15.2437 13.5109C14.257 12.4576 13.7637 11.1443 13.7637 9.57094C13.7637 7.9976 14.2503 6.71094 15.2237 5.71094C16.2103 4.71094 17.4637 4.21094 18.9837 4.21094C20.5037 4.21094 21.6637 4.7376 22.4637 5.79094V4.29094ZM19.3237 12.8309C20.2303 12.8309 20.9637 12.5309 21.5237 11.9309C22.097 11.3176 22.3837 10.5309 22.3837 9.57094C22.3837 8.5976 22.097 7.81094 21.5237 7.21094C20.9637 6.61094 20.2303 6.31094 19.3237 6.31094C18.457 6.31094 17.737 6.62427 17.1637 7.25094C16.5903 7.86427 16.3037 8.6376 16.3037 9.57094C16.3037 10.5043 16.5903 11.2843 17.1637 11.9109C17.737 12.5243 18.457 12.8309 19.3237 12.8309Z" fill="white"/>
<path d="M9.29156 0.931641H11.8516V14.8316H9.29156V8.85164H3.41156V14.8316H0.851562V0.931641H3.41156V6.57164H9.29156V0.931641Z" fill="white"/>
</svg>
